<svg height="128" width="128" xmlns="http://www.w3.org/2000/svg">
  <rect fill="#9b59b6" height="104" rx="8" width="104" x="12" y="15.000002"/>
  <path d="m20.000014 15h87.999996c4.432 0 8 3.568 8 8v5h-103.999996v-5c0-4.432 3.568-8 8-8z" opacity=".8"/>
  <g fill="#fff">
    <rect height="3" rx="1" width="3" x="62.5" y="20.000002"/>
    <rect height="3" rx="1" width="3" x="67.5" y="20.000002"/>
    <rect height="3" rx="1" width="3" x="57.5" y="20.000002"/>
  </g>
  <path d="m20.000014 119h87.999996c4.432 0 8-3.568 8-8v-20h-103.999996v20c0 4.432 3.568 8 8 8z" opacity=".8"/>
  <path d="m52.8682 45.000104a3.8399736 3.8399736 0 0 0 -3.868093 3.868097v22.263597c0 2.15811 1.709979 3.868098 3.868093 3.868098h22.2636a3.8399736 3.8399736 0 0 0 3.868093-3.868098v-22.263597a3.8399736 3.8399736 0 0 0 -3.868093-3.868097zm3.749978 5.62496h3.749968v7.499949h7.381822v-7.499949h3.749979v18.749871h-3.749979v-7.499949h-7.383697v7.499949h-3.749968z" fill="#fff"/>
  <path d="m46.975372 98v11.84495h2.228363v-5.92969c.293059-.50385.765914-.75541 1.418871-.75541.478154 0 .820191.1148 1.025843.34616.205652.22622.308298.57834.308289 1.05649v5.28245h2.230172v-5.34375c-.02571-2.10283-.943236-3.15505-2.753003-3.15505-.8946 0-1.638904.35599-2.230172 1.06551v-4.41166zm31.811898 0v11.84495h2.237382v-11.84495zm-13.548673 1.44952v2.05168h-1.218757v1.63522h1.218757v4.4964c.03084 1.57839.82764 2.36718 2.390621 2.36718.462729 0 .911539-.0665 1.34856-.20012v-1.68931c-.190228.036-.407658.0541-.654452.0541-.334191 0-.561434-.0665-.67968-.20012-.118256-.13368-.176686-.35498-.176686-.66346v-4.16466h1.42608v-1.63522h-1.42608v-2.05168zm-5.77645 1.89663c-.791769 0-1.4898.17891-2.091341.53365-.5964.35477-1.053231.85581-1.371997 1.50361-.318766.64782-.477766 1.38438-.477766 2.21215v.10095c0 1.32648.356261 2.37483 1.070917 3.14603.719787.77122 1.681523 1.15746 2.884615 1.15746 1.203083 0 2.162751-.38624 2.877406-1.15746.714646-.77634 1.070908-1.80452 1.070908-3.08472l-.01442-.56972c-.08226-1.18252-.480664-2.11815-1.19531-2.80709-.709514-.68895-1.627043-1.03486-2.753012-1.03486zm14.266228 0c-.760929 0-1.439058.18096-2.035458.54087-.591259.35476-1.04808.86381-1.371988 1.52704-.323908.6581-.486785 1.40655-.486785 2.2446v.21454c0 1.24936.382376 2.24935 1.148437 3 .771213.75064 1.769142 1.1268 2.992791 1.1268.694089 0 1.325935-.13082 1.896637-.39303.570692-.26735 1.023378-.63758 1.357569-1.11058l-1.094354-1.22596c-.483286.62211-1.155212.93209-2.013821.93209-.555268 0-1.014166-.16314-1.379206-.49218-.359899-.32905-.577062-.76752-.649034-1.3125h5.314901v-.90866c0-1.32134-.329889-2.3433-.987978-3.0631-.652966-.7198-1.550326-1.07993-2.691711-1.07993zm-14.266228 1.80469c.550136 0 .976708.2151 1.28005.64183.303341.42674.454329 1.02653.454329 1.80289 0 .91002-.150988 1.57393-.454329 1.99038-.303342.41131-.725779.61658-1.265622.61658-.555268 0-.981849-.20734-1.280049-.6238-.2982-.42158-.447111-1.02913-.447111-1.8209 0-.88946.148911-1.54356.447111-1.96515.2982-.42673.720637-.64183 1.265621-.64183zm14.259019 0c.473012 0 .837277.13677 1.094354.40926.257067.26735.391763.64765.402037 1.14123v.17847h-3.100957c.07712-.55526.252147-.98184.52464-1.28004.277634-.2982.637763-.44892 1.079926-.44892z" fill="#fff"/>
</svg>
