<svg height="128" width="128" xmlns="http://www.w3.org/2000/svg" xmlns:xlink="http://www.w3.org/1999/xlink">
  <linearGradient id="a">
    <stop offset="0" stop-color="#6e367c"/>
    <stop offset="1" stop-color="#a75eca"/>
  </linearGradient>
  <linearGradient id="b" gradientTransform="matrix(-.19999997 0 0 .19999997 25.172588 -47.799999)" gradientUnits="userSpaceOnUse" x1="19.874987" x2="19.874987" xlink:href="#a" y1="38.245197" y2="-61.256123"/>
  <linearGradient id="c" gradientTransform="matrix(-.17777775 0 0 .17777775 24.486744 -47.377777)" gradientUnits="userSpaceOnUse" x1="19.874987" x2="19.874987" xlink:href="#a" y1="38.245197" y2="-61.256123"/>
  <rect fill="#9b59b6" height="104" rx="6.058252" width="104" x="12" y="15"/>
  <path d="m18.058253 15h91.883497c3.35627 0 6.05825 2.792348 6.05825 6.260869v5.739131h-104v-5.739131c0-3.468521 2.70198-6.260869 6.058253-6.260869z" opacity=".8"/>
  <path d="m18.058253 119h91.883497c3.35627 0 6.05825-2.79235 6.05825-6.26087v-21.73913h-104v21.73913c0 3.46852 2.70198 6.26087 6.058253 6.26087z" opacity=".8"/>
  <g transform="translate(40 65)">
    <path d="m20.412268-46h-2.824538c-.325601 0-.58773.262128-.58773.587732v2.824536c0 .325604.262129.587732.58773.587732h2.824538c.325599 0 .58773-.262128.58773-.587732v-2.824536c0-.325604-.262131-.587732-.58773-.587732z" fill="url(#b)" opacity=".15"/>
    <path d="m20.25535-45.777778h-2.510701c-.289424 0-.522427.233003-.522427.522428v2.5107c0 .289425.233003.522428.522427.522428h2.510701c.289421 0 .522426-.233003.522426-.522428v-2.5107c0-.289425-.233005-.522428-.522426-.522428z" fill="url(#c)" opacity=".3"/>
    <path d="m20.157689-45.446061h-2.315382c-.159755 0-.288371.128615-.288371.288372v2.315378c0 .159758.128616.288372.288371.288372h2.315382c.159759 0 .288373-.128614.288373-.288372v-2.315378c0-.159757-.128614-.288372-.288373-.288372z" fill="#f7f7f7" stroke="#fff" stroke-width=".218983"/>
  </g>
  <g transform="translate(45 65)">
    <path d="m20.412268-46h-2.824538c-.325601 0-.58773.262128-.58773.587732v2.824536c0 .325604.262129.587732.58773.587732h2.824538c.325599 0 .58773-.262128.58773-.587732v-2.824536c0-.325604-.262131-.587732-.58773-.587732z" fill="url(#b)" opacity=".15"/>
    <path d="m20.25535-45.777778h-2.510701c-.289424 0-.522427.233003-.522427.522428v2.5107c0 .289425.233003.522428.522427.522428h2.510701c.289421 0 .522426-.233003.522426-.522428v-2.5107c0-.289425-.233005-.522428-.522426-.522428z" fill="url(#c)" opacity=".3"/>
    <path d="m20.157689-45.446061h-2.315382c-.159755 0-.288371.128615-.288371.288372v2.315378c0 .159758.128616.288372.288371.288372h2.315382c.159759 0 .288373-.128614.288373-.288372v-2.315378c0-.159757-.128614-.288372-.288373-.288372z" fill="#f7f7f7" stroke="#fff" stroke-width=".218983"/>
  </g>
  <g transform="translate(50 65)">
    <path d="m20.412268-46h-2.824538c-.325601 0-.58773.262128-.58773.587732v2.824536c0 .325604.262129.587732.58773.587732h2.824538c.325599 0 .58773-.262128.58773-.587732v-2.824536c0-.325604-.262131-.587732-.58773-.587732z" fill="url(#b)" opacity=".15"/>
    <path d="m20.25535-45.777778h-2.510701c-.289424 0-.522427.233003-.522427.522428v2.5107c0 .289425.233003.522428.522427.522428h2.510701c.289421 0 .522426-.233003.522426-.522428v-2.5107c0-.289425-.233005-.522428-.522426-.522428z" fill="url(#c)" opacity=".3"/>
    <path d="m20.157689-45.446061h-2.315382c-.159755 0-.288371.128615-.288371.288372v2.315378c0 .159758.128616.288372.288371.288372h2.315382c.159759 0 .288373-.128614.288373-.288372v-2.315378c0-.159757-.128614-.288372-.288373-.288372z" fill="#f7f7f7" stroke="#fff" stroke-width=".218983"/>
  </g>
  <g fill="#fff">
    <g stroke-width=".987148" transform="matrix(.81250127 0 0 .81250127 8.663533 21.442684)">
      <path d="m48.378833 100.72137q1.182518-1.419026 2.971719-1.419026 3.619533 0 3.670947 4.205646v7.12596h-2.971719v-7.04369q0-.9563-.411311-1.40874-.41131-.46273-1.367607-.46273-1.305911 0-1.892029 1.00771v7.90745h-2.971718v-15.794325h2.971718z"/>
      <path d="m56.800417 104.96815q0-1.65553.637531-2.95116.637532-1.29562 1.830332-2.00514 1.203084-.709506 2.786629-.709506 2.251925 0 3.670947 1.377886 1.429304 1.37789 1.593828 3.74293l.02057.76092q0 2.56041-1.429304 4.11311-1.429304 1.54241-3.83547 1.54241-2.406167 0-3.845754-1.54241-1.429304-1.54241-1.429304-4.19537zm2.971719.21593q0 1.58355.5964 2.42674.5964.8329 1.706939.8329 1.07969 0 1.686373-.82262.606683-.8329.606683-2.65295 0-1.5527-.606683-2.40617-.606683-.85347-1.706939-.85347-1.089973 0-1.686373.85347-.5964.84319-.5964 2.6221z"/>
      <path d="m72.728417 96.772784v2.735215h1.902311v2.179951h-1.902311v5.55269q0 .61696.236503.88432.236504.26735.904883.26735.493573 0 .874035-.072v2.25192q-.874035.26735-1.799483.26735-3.12596 0-3.187657-3.1568v-5.99485h-1.624676v-2.179951h1.624676v-2.735215z"/>
      <path d="m81.40707 110.8396q-2.447298 0-3.989712-1.50128-1.532132-1.50128-1.532132-3.99999v-.28792q0-1.67609.647814-2.99229.647814-1.32647 1.830332-2.03598 1.1928-.719796 2.714649-.719796 2.282774 0 3.588685 1.439586 1.316193 1.43959 1.316193 4.08226v1.21336h-7.084823q.143958 1.08998.863752 1.74807.730076.6581 1.840614.6581 1.717222 0 2.683801-1.24421l1.460153 1.63496q-.66838.94601-1.809766 1.48071-1.141387.52442-2.52956.52442zm-.339331-9.13109q-.884318 0-1.439587.5964-.544987.5964-.699228 1.70694h4.133671v-.2365q-.02057-.98715-.534704-1.52185-.514138-.54499-1.460152-.54499z"/>
      <path d="m90.805515 110.63395h-2.982001v-15.794325h2.982001z"/>
    </g>
    <path d="m53.610321 45.000097a3.5839753 3.5839753 0 0 0 -3.610224 3.610224v20.779357c0 2.014236 1.595988 3.610225 3.610224 3.610225h20.779357a3.5839753 3.5839753 0 0 0 3.610225-3.610225v-20.779357a3.5839753 3.5839753 0 0 0 -3.610225-3.610224zm3.499976 5.249963h3.499976v6.999952h6.889702v-6.999952h3.499977v17.499879h-3.499977v-6.999952h-6.891452v6.999952h-3.499976z" stroke-width="1.74999"/>
  </g>
</svg>
